<svg width="60" height="60" viewBox="0 0 60 60" fill="none" xmlns="http://www.w3.org/2000/svg">
<g clip-path="url(#clip0_932_830)">
<path d="M30.0014 37.5781C29.5167 37.5781 29.124 37.1853 29.124 36.7007V27.0035C29.124 25.6679 30.1245 24.5439 31.451 24.389L57.4695 21.3507C57.9116 21.2991 58.2451 20.9244 58.2451 20.4793V10.43C58.2451 9.94625 57.8516 9.55262 57.3677 9.55262H54.4382C53.9535 9.55262 53.5608 9.1598 53.5608 8.67523C53.5608 8.19066 53.9535 7.79785 54.4382 7.79785H57.3676C58.819 7.79785 59.9999 8.97863 59.9999 10.4301V20.4792C59.9999 21.8148 58.9995 22.9387 57.6729 23.0936L31.6546 26.132C31.2124 26.1835 30.8789 26.5583 30.8789 27.0034V36.7006C30.8789 37.1852 30.4862 37.5781 30.0014 37.5781Z" fill="#3A4D51"/>
<path d="M24.5722 15.5576H7.98236C7.49768 15.5576 7.10498 15.9504 7.10498 16.435V30.5575C7.10498 32.5809 8.75111 34.227 10.7745 34.227C12.7978 34.227 14.4438 32.5809 14.4438 30.5575V26.392C14.4438 25.4316 15.2253 24.6502 16.1857 24.6502C17.1461 24.6502 17.9275 25.4316 17.9275 26.392V28.4011C17.9275 30.4749 19.6147 32.1622 21.6885 32.1622C23.7624 32.1622 25.4495 30.4749 25.4495 28.4011V16.4351C25.4496 15.9505 25.0569 15.5576 24.5722 15.5576Z" fill="#FF434D"/>
<path d="M24.5722 15.5576H7.98236C7.49768 15.5576 7.10498 15.9504 7.10498 16.435V19.2428H25.4496V16.435C25.4496 15.9505 25.0569 15.5576 24.5722 15.5576Z" fill="#DD3646"/>
<path d="M3.83848 3.93457H0.877383C0.392695 3.93457 0 4.3275 0 4.81207V12.5382C0 13.0228 0.392695 13.4156 0.877383 13.4156H3.83836C4.32305 13.4156 4.71574 13.0228 4.71574 12.5382V4.81207C4.71586 4.3275 4.32305 3.93457 3.83848 3.93457Z" fill="#FF6137"/>
<path d="M52.6835 0.0791016H5.59345C4.14208 0.0791016 2.96118 1.25988 2.96118 2.71137V14.6386C2.96118 16.0901 4.14208 17.2709 5.59345 17.2709H52.6837C54.1351 17.2709 55.316 16.0901 55.316 14.6386V2.71137C55.3158 1.25988 54.1349 0.0791016 52.6835 0.0791016Z" fill="#FFD039"/>
<path d="M52.6835 13.483H5.59345C4.14208 13.483 2.96118 12.3022 2.96118 10.8507V14.6383C2.96118 16.0898 4.14208 17.2706 5.59345 17.2706H52.6837C54.1351 17.2706 55.316 16.0898 55.316 14.6383V10.8507C55.3158 12.3022 54.1349 13.483 52.6835 13.483Z" fill="#FFAE47"/>
<path d="M33.7767 35.8232H26.4042C25.9196 35.8232 25.5269 36.2161 25.5269 36.7006V55.3582C25.5269 57.8745 27.5741 59.9217 30.0905 59.9217C32.6069 59.9217 34.6541 57.8744 34.6541 55.3582V36.7006C34.6542 36.2161 34.2613 35.8232 33.7767 35.8232Z" fill="#546F7A"/>
<path d="M33.7765 35.8232H30.0501C30.5348 35.8232 30.9275 36.2161 30.9275 36.7006V55.3582C30.9275 57.211 29.8169 58.8083 28.2271 59.5224C28.7965 59.7781 29.4267 59.9217 30.0902 59.9217C32.6067 59.9217 34.6538 57.8744 34.6538 55.3582V36.7006C34.654 36.2161 34.261 35.8232 33.7765 35.8232Z" fill="#475D63"/>
<path d="M47.9392 44.5216L45.804 43.5646C45.1154 43.2559 44.5663 42.7067 44.2575 42.0182L43.3005 39.8831C43.1592 39.5676 42.8456 39.3644 42.4999 39.3644C42.1542 39.3644 41.8406 39.5675 41.6993 39.8829L40.7421 42.0182C40.4336 42.7068 39.8844 43.2559 39.1958 43.5646L37.0607 44.5216C36.7452 44.663 36.542 44.9765 36.542 45.3222C36.542 45.6679 36.745 45.9815 37.0607 46.1228L39.1958 47.0798C39.8844 47.3884 40.4336 47.9376 40.7422 48.6263L41.6993 50.7615C41.8407 51.0769 42.1542 51.28 42.4999 51.28C42.8456 51.28 43.1592 51.0769 43.3005 50.7613L44.2575 48.6262C44.5663 47.9376 45.1154 47.3883 45.804 47.0798L47.9392 46.1228C48.2547 45.9814 48.4579 45.6679 48.4579 45.3222C48.4577 44.9765 48.2547 44.663 47.9392 44.5216Z" fill="#FFD039"/>
<path d="M59.4094 30.3653L57.2742 29.4084C56.5856 29.0997 56.0365 28.5506 55.7277 27.862L54.7708 25.7268C54.6294 25.4113 54.3158 25.2081 53.9701 25.2081C53.6244 25.2081 53.3108 25.4112 53.1695 25.7268L52.2126 27.862C51.9038 28.5506 51.3546 29.0997 50.666 29.4084L48.5309 30.3653C48.2154 30.5068 48.0122 30.8202 48.0122 31.1659C48.0122 31.5116 48.2152 31.8252 48.5309 31.9666L50.666 32.9235C51.3546 33.2322 51.9038 33.7813 52.2126 34.4699L53.1695 36.6051C53.3108 36.9206 53.6244 37.1238 53.9701 37.1238C54.3158 37.1238 54.6294 36.9207 54.7708 36.6051L55.7277 34.4699C56.0365 33.7813 56.5856 33.2321 57.2742 32.9235L59.4094 31.9666C59.7249 31.8251 59.9281 31.5116 59.9281 31.1659C59.9279 30.8204 59.725 30.5068 59.4094 30.3653Z" fill="#FFD039"/>
<path d="M11.4076 35.7273C11.2409 35.5352 10.9992 35.4248 10.7449 35.4248C10.4906 35.4248 10.2487 35.5351 10.0822 35.7273C9.569 36.3188 5.06982 41.5891 5.06982 44.4827C5.06982 47.612 7.61561 50.1577 10.7449 50.1577C13.8741 50.1577 16.42 47.612 16.42 44.4827C16.42 41.5891 11.9207 36.3187 11.4076 35.7273Z" fill="#FF434D"/>
<path d="M11.4077 35.7273C11.241 35.5352 10.9993 35.4248 10.745 35.4248C10.4907 35.4248 10.2488 35.5351 10.0823 35.7273C9.93591 35.896 9.46481 36.446 8.86646 37.2126C10.365 39.1328 12.6631 42.4146 12.6631 44.4827C12.6631 46.9536 11.0751 49.0597 8.86646 49.8369C9.45485 50.0439 10.0866 50.1577 10.745 50.1577C13.8742 50.1577 16.4201 47.612 16.4201 44.4827C16.4201 41.5891 11.9208 36.3187 11.4077 35.7273Z" fill="#DD3646"/>
</g>
<defs>
<clipPath id="clip0_932_830">
<rect width="60" height="60" fill="white"/>
</clipPath>
</defs>
</svg>
