<svg width="60" height="60" viewBox="0 0 60 60" fill="none" xmlns="http://www.w3.org/2000/svg">
<path d="M52.5909 28.9214C54.6856 26.8267 56.123 24.166 56.7269 21.2659C57.3308 18.3658 57.0748 15.3524 55.9903 12.5958L46.8211 21.7631L38.6686 21.3309L38.2364 13.1784L47.4056 4.00921C44.649 2.92472 41.6357 2.66869 38.7357 3.27254C35.8356 3.87639 33.1749 5.31384 31.0803 7.40846C28.9856 9.50307 27.5481 12.1637 26.9442 15.0638C26.3402 17.9638 26.5962 20.9771 27.6806 23.7337L4.73437 46.6805C3.61977 47.8238 3.00047 49.3601 3.01062 50.9568C3.02077 52.5535 3.65955 54.0819 4.78859 55.2109C5.91763 56.34 7.44602 56.9787 9.04269 56.9889C10.6394 56.999 12.1758 56.3797 13.3191 55.2651L36.2658 32.3189C39.0222 33.4036 42.0353 33.6599 44.9354 33.0564C47.8354 32.4529 50.4961 31.0157 52.5909 28.9214Z" fill="#6B6B6B"/>
<path d="M27.0203 35.9615C27.845 35.1368 27.845 33.7996 27.0203 32.9749C26.1956 32.1501 24.8584 32.1501 24.0337 32.9749L14.5836 42.4249C13.7589 43.2497 13.7589 44.5868 14.5836 45.4116C15.4083 46.2363 16.7455 46.2363 17.5702 45.4116L27.0203 35.9615Z" fill="#F93E67"/>
<path d="M9.02674 53.0847C10.1933 53.0847 11.1389 52.1391 11.1389 50.9725C11.1389 49.806 10.1933 48.8604 9.02674 48.8604C7.86021 48.8604 6.91455 49.806 6.91455 50.9725C6.91455 52.1391 7.86021 53.0847 9.02674 53.0847Z" fill="#C5E1FC"/>
<path d="M29.9925 27.0197L12.0164 9.04359L11.362 6.26531L5.28892 2.95593L2.95642 5.28843L6.2658 11.3616L9.04408 12.0159L27.0202 29.992L29.9925 27.0197Z" fill="#C5E1FC"/>
<path d="M35.5153 29.7216L35.1961 30.0413L33.3933 23.6194L23.6194 33.3928L30.0413 35.1956L29.722 35.5149C29.2307 36.0063 28.9546 36.6728 28.9546 37.3678C28.9546 38.0628 29.2307 38.7293 29.722 39.2208L46.777 56.2758C47.2685 56.7672 47.935 57.0432 48.63 57.0432C49.325 57.0432 49.9915 56.7672 50.483 56.2758L56.2763 50.4839C56.7676 49.9924 57.0437 49.3259 57.0437 48.6309C57.0437 47.936 56.7676 47.2695 56.2763 46.778L39.2213 29.7216C38.7298 29.2302 38.0633 28.9542 37.3683 28.9542C36.6733 28.9542 36.0068 29.2302 35.5153 29.7216Z" fill="#FFB206"/>
<path d="M56.2781 50.4839L50.4844 56.2777C49.9923 56.7686 49.3256 57.0443 48.6305 57.0443C47.9354 57.0443 47.2687 56.7686 46.7766 56.2777L43.4156 52.9167V52.912L52.9125 43.4152H52.9172L56.2781 46.7761C56.7691 47.2682 57.0447 47.9349 57.0447 48.63C57.0447 49.3251 56.7691 49.9918 56.2781 50.4839Z" fill="#F93E67"/>
<path d="M43.125 47.1121C43.0173 47.1123 42.9106 47.0911 42.8111 47.0499C42.7116 47.0086 42.6212 46.948 42.5452 46.8716L33.7796 38.106C33.6301 37.9513 33.5474 37.7441 33.5492 37.5291C33.551 37.314 33.6373 37.1082 33.7893 36.9561C33.9414 36.804 34.1471 36.7176 34.3622 36.7157C34.5773 36.7138 34.7845 36.7965 34.9393 36.9459L43.7049 45.7115C43.8197 45.8262 43.8979 45.9723 43.9296 46.1315C43.9613 46.2907 43.9451 46.4556 43.883 46.6056C43.821 46.7555 43.7158 46.8837 43.5809 46.9738C43.446 47.064 43.2873 47.1121 43.125 47.1121Z" fill="#C5E1FC"/>
<path d="M46.2924 43.9457C46.1847 43.9459 46.078 43.9247 45.9785 43.8835C45.8789 43.8422 45.7886 43.7816 45.7126 43.7053L36.947 34.9396C36.7976 34.7849 36.7149 34.5777 36.7168 34.3626C36.7187 34.1475 36.8051 33.9418 36.9572 33.7897C37.1093 33.6376 37.3151 33.5514 37.5301 33.5496C37.7452 33.5478 37.9524 33.6305 38.1071 33.7799L46.8727 42.5456C46.9874 42.6603 47.0654 42.8064 47.0971 42.9655C47.1287 43.1246 47.1124 43.2894 47.0504 43.4393C46.9883 43.5891 46.8832 43.7172 46.7484 43.8074C46.6136 43.8975 46.4546 43.9456 46.2924 43.9457Z" fill="#C5E1FC"/>
</svg>
