<svg width="62" height="62" viewBox="0 0 62 62" fill="none" xmlns="http://www.w3.org/2000/svg">
<path d="M49.364 0.129292C49.0851 0.214111 48.6849 0.407986 48.4545 0.541275C48.2363 0.686684 42.9248 5.92131 36.6554 12.198L25.2563 23.5882L16.2827 14.6215C9.16433 7.50866 7.24833 5.65473 7.0058 5.65473C6.83603 5.65473 6.33883 5.81226 5.90228 6.00613C3.48908 7.03609 1.11227 9.47165 0.202771 11.8587C0.0572516 12.2465 -0.0276347 12.6706 0.0208718 12.8281C0.0572516 12.9856 4.09541 17.1176 9.00669 22.0129L17.9197 30.9191L9.14008 39.704L0.360417 48.489L0.154264 49.2039C-0.100394 50.0885 -0.0397613 50.973 0.336164 51.7122C0.760595 52.5482 3.0404 54.7899 3.90139 55.214C4.81088 55.6745 5.11405 55.6745 8.44886 55.2261C10.5104 54.9475 11.0803 54.8384 11.2501 54.6566C11.3714 54.5233 11.9777 53.348 12.5962 52.0151C13.3844 50.3429 13.8088 49.5917 13.9786 49.5189C14.112 49.4705 15.361 49.2766 16.7556 49.0948C18.8535 48.8162 19.3264 48.7071 19.569 48.5011C19.7266 48.3557 20.3451 47.1803 20.9635 45.8838C21.5699 44.5873 22.1034 43.4846 22.1398 43.4361C22.1883 43.3877 23.4737 43.1817 24.9896 42.9636C26.5054 42.7454 27.8272 42.5152 27.9242 42.4425C28.0212 42.3698 28.6397 41.1581 29.3066 39.7646L30.5072 37.22L33.2235 36.8323C34.7151 36.6141 36.0369 36.3839 36.1703 36.3233C36.4128 36.2264 36.91 35.2691 38.3531 32.1793L38.9594 30.9069L42.0517 29.5135C44.7559 28.2896 45.1561 28.0836 45.2652 27.7928C45.3501 27.5263 45.2652 26.9204 44.9136 25.1392L44.4649 22.8248L45.629 21.6494L46.7932 20.4862L49.6066 20.886C53.8994 21.4919 53.4143 21.71 57.8527 17.2994C61.8302 13.3491 62 13.1189 62 11.6527C62 10.029 62.0606 10.1139 57.1008 5.13369C52.2259 0.238346 52.044 0.0929413 50.6373 0.00811768C50.1886 -0.0161133 49.6672 0.0323524 49.364 0.129292ZM51.183 1.94687C51.4013 2.04381 53.4507 4.00679 55.8396 6.39388C60.4478 11.0348 60.3871 10.9499 60.181 12.0405C60.1082 12.4404 59.6474 12.9614 56.8098 15.8089C54.3481 18.2687 53.3901 19.1533 53.0263 19.2866C52.5776 19.4683 52.3593 19.4441 49.7157 19.0685L46.8781 18.6565L43.3492 15.1304L39.8083 11.5922L44.5377 6.85433C47.1449 4.24914 49.4368 2.04381 49.6308 1.94687C50.1038 1.74088 50.698 1.74088 51.183 1.94687ZM8.94605 9.89575C8.94605 9.9321 8.60651 10.1502 8.19421 10.3804C7.1877 10.9499 5.684 12.3919 4.9564 13.4703C4.62898 13.955 4.33794 14.4276 4.30156 14.5245C4.26518 14.6215 3.82863 14.2701 3.0889 13.543L1.92475 12.3919L2.37343 11.5437C2.97976 10.3683 4.67749 8.65979 5.85377 8.05394L6.70263 7.6056L7.83041 8.72038C8.43674 9.32624 8.94605 9.85939 8.94605 9.89575ZM17.1679 18.0506C20.8423 21.7221 23.8618 24.7999 23.8618 24.8605C23.8618 25.018 19.3507 29.5256 19.193 29.5256C19.0111 29.5256 5.67187 16.1603 5.67187 15.9665C5.67187 15.8816 5.85377 15.4697 6.05992 15.0577C6.78752 13.6884 9.41899 11.374 10.28 11.3498C10.377 11.3498 13.4814 14.367 17.1679 18.0506ZM41.9062 16.233L45.2046 19.5289L44.3558 20.3771L43.5069 21.2253L40.1721 17.8931L36.8373 14.5609L37.6497 13.749C38.0984 13.2886 38.4986 12.925 38.535 12.925C38.5714 12.925 40.0872 14.4155 41.9062 16.233ZM43.0218 24.8847C43.2401 25.9753 43.3977 26.884 43.3735 26.9083C43.3492 26.9446 42.1002 27.5141 40.5965 28.1806C39.1049 28.8591 37.7831 29.5014 37.6619 29.6225C37.5527 29.7316 36.9585 30.8948 36.3522 32.1914C35.7337 33.4879 35.2002 34.5906 35.1517 34.6512C35.1031 34.6996 33.8662 34.9056 32.3989 35.0995C30.9437 35.3055 29.634 35.5115 29.4885 35.5721C29.3188 35.6448 28.8701 36.4809 28.0455 38.2015C27.3906 39.595 26.8207 40.7703 26.7843 40.8188C26.7479 40.8673 25.511 41.0733 24.0437 41.2793C22.5764 41.4853 21.2788 41.6791 21.1575 41.7155C20.9029 41.8003 20.9029 41.7882 19.5326 44.6721L18.4048 47.0349L15.6521 47.4348C14.1241 47.6529 12.7781 47.9074 12.6447 47.9922C12.5113 48.0891 11.8928 49.2524 11.2622 50.5974C10.6438 51.9303 10.0617 53.0814 9.98894 53.1299C9.84342 53.251 5.99929 53.76 5.33233 53.76C4.71387 53.76 4.37432 53.5176 3.10103 52.209C1.87624 50.9488 1.67009 50.5368 1.83986 49.7976C1.9005 49.5674 7.1877 44.1995 18.7444 32.6518L35.564 15.8332L39.0928 19.3593L42.6338 22.8975L43.0218 24.8847Z" fill="#BA8756"/>
<path d="M46.8051 7.99334C43.8462 10.9499 43.6279 11.2044 43.6279 11.5921C43.6279 11.992 43.8098 12.198 45.8471 14.2337C47.0719 15.4454 48.1512 16.439 48.2482 16.439C48.3452 16.439 49.1334 16.5481 49.9944 16.6814C50.8675 16.8147 51.7285 16.9237 51.9225 16.9237C52.2257 16.9237 52.6501 16.5602 54.748 14.476C57.0278 12.2101 57.2097 11.992 57.2097 11.5921C57.2097 11.1923 56.9915 10.9499 54.0204 7.98122C51.0737 5.03675 50.8069 4.80652 50.4188 4.80652C50.0187 4.80652 49.764 5.03675 46.8051 7.99334ZM52.7835 9.28988L55.0876 11.5921L53.3292 13.3491L51.5709 15.094L50.2127 14.9001L48.8666 14.7063L47.3023 13.1431L45.7501 11.5921L48.0541 9.28988C49.3153 8.01757 50.3825 6.98761 50.4188 6.98761C50.4552 6.98761 51.5224 8.02969 52.7835 9.28988Z" fill="white"/>
<path d="M34.1938 19.1412C33.7572 19.6137 33.8421 20.0863 34.4727 20.6679C35.0669 21.2132 35.4428 21.2859 35.8793 20.9345C36.0855 20.777 36.1583 20.5831 36.1583 20.2559C36.1583 19.8803 36.0734 19.7228 35.6489 19.335C35.0547 18.7776 34.5939 18.7171 34.1938 19.1412Z" fill="white"/>
<path d="M37.0922 22.2068C36.7284 22.6794 36.7769 22.9338 37.3711 23.5518C37.9532 24.1819 38.4625 24.291 38.8991 23.8911C39.3114 23.5155 39.2265 22.9096 38.6686 22.3643C38.0744 21.7706 37.4802 21.71 37.0922 22.2068Z" fill="white"/>
<path d="M25.3415 6.62411C24.7352 6.87857 24.7473 7.02398 25.6325 11.677C26.4086 15.7241 26.4935 16.0392 26.8088 16.3663C27.0756 16.6329 27.209 16.6935 27.4758 16.6329C27.876 16.536 28.2276 16.1361 28.2276 15.7847C28.2276 15.1546 26.5663 6.96339 26.3965 6.80587C26.1661 6.57564 25.6689 6.49082 25.3415 6.62411Z" fill="white"/>
<path d="M21.6789 11.8345C21.4485 12.0647 21.3758 12.295 21.4364 12.6827C21.4728 12.9614 23.7405 16.7177 24.0073 16.948C24.5529 17.4327 25.4382 17.0449 25.4382 16.3421C25.4382 15.9786 23.1705 12.0284 22.8067 11.7376C22.5036 11.5195 21.9579 11.5558 21.6789 11.8345Z" fill="white"/>
<path d="M43.1918 32.567C42.925 32.7003 42.6582 33.1486 42.6582 33.4637C42.6582 33.5606 42.7795 33.7666 42.9371 33.9362C43.1796 34.2149 43.592 34.3119 47.3512 35.0389C49.631 35.4751 51.6925 35.8265 51.9108 35.8265C52.4323 35.8265 52.7233 35.5115 52.7233 34.9541C52.7233 34.1665 53.3539 34.3482 43.689 32.4943C43.5556 32.4701 43.3252 32.5064 43.1918 32.567Z" fill="white"/>
<path d="M42.488 35.4751C42.1363 35.7538 42.0515 36.3597 42.3304 36.7111C42.5123 36.9534 46.514 39.3405 46.7323 39.3405C47.0719 39.3405 47.4963 39.0497 47.6054 38.7468C47.8358 38.0682 47.6297 37.8622 45.3499 36.5051C44.1615 35.8023 43.1065 35.2207 42.9973 35.2207C42.9003 35.2207 42.6699 35.3297 42.488 35.4751Z" fill="white"/>
<path d="M38.0745 37.0867C37.8926 37.4866 37.1893 37.9955 36.5708 38.1773C36.2798 38.2621 35.1035 38.4681 33.9394 38.6256L31.8293 38.9043L30.8835 40.8552L29.9497 42.7939L36.9953 49.8461L44.0287 56.8983L44.6472 56.5833C47.0967 55.3473 49.704 52.7421 50.9409 50.2945L51.2562 49.6765L44.8048 43.2423C41.2517 39.6919 38.3171 36.7959 38.2807 36.7959C38.2443 36.7959 38.1473 36.9292 38.0745 37.0867Z" fill="#BA8756"/>
<path d="M25.7897 45.799C25.6199 45.8838 25.341 46.2715 25.1227 46.732C24.674 47.6408 24.383 47.9437 23.4977 48.4042C22.6974 48.804 22.4912 49.2403 22.855 49.7492C22.9884 49.9188 23.2431 50.0763 23.425 50.1006C23.8979 50.1612 24.9287 49.6159 25.5956 48.9737C26.2383 48.3315 26.8932 47.1076 26.8932 46.5502C26.8932 45.9444 26.3111 45.5445 25.7897 45.799Z" fill="white"/>
<path d="M29.3553 45.7747C29.2098 45.8232 29.0036 46.0171 28.8824 46.1867C28.6883 46.4775 28.6883 46.526 28.943 47.1925C29.4644 48.5253 30.6043 49.6765 31.7806 50.0279C32.5931 50.2702 33.1145 49.7855 32.9084 48.9858C32.872 48.8283 32.581 48.5981 32.1687 48.3799C31.3804 47.968 30.762 47.3015 30.5316 46.6108C30.3012 45.8959 29.8646 45.5809 29.3553 45.7747Z" fill="white"/>
<path d="M27.3304 48.2709C27.2819 48.3315 26.9787 48.9131 26.6634 49.5795C25.9843 50.9851 25.2689 51.9909 24.1775 53.0087C23.2316 53.8811 22.7708 54.2083 20.7578 55.3958C17.6412 57.2376 16.2831 58.728 16.1375 60.4123C16.0769 61.2605 16.3558 61.8058 16.95 61.927C17.1683 61.9633 22.116 61.9997 27.9489 61.9997C39.8451 61.9997 39.2509 62.0481 39.5176 61.1636C40.027 59.4429 38.2686 57.2497 34.8368 55.3352C31.89 53.6873 29.8042 51.5546 28.8826 49.2524C28.7128 48.8404 28.4824 48.4163 28.3733 48.3315C28.1671 48.1739 27.4759 48.1376 27.3304 48.2709ZM26.7604 56.862C26.906 57.0437 27.0151 57.3103 27.0151 57.4557C27.0151 57.6011 26.906 57.8677 26.7604 58.0495C26.53 58.3403 26.4573 58.3645 25.4629 58.3645C24.5655 58.3645 24.3836 58.3281 24.1411 58.0979C23.7773 57.7586 23.7773 57.2013 24.129 56.8256C24.3594 56.5712 24.4928 56.5469 25.4508 56.5469C26.4573 56.5469 26.53 56.559 26.7604 56.862ZM31.6111 56.862C31.7566 57.0437 31.8657 57.3103 31.8657 57.4557C31.8657 57.6011 31.7566 57.8677 31.6111 58.0495C31.3807 58.3403 31.3079 58.3645 30.3135 58.3645C29.4162 58.3645 29.2343 58.3281 28.9917 58.0979C28.6279 57.7586 28.6279 57.2013 28.9796 56.8256C29.21 56.5712 29.3434 56.5469 30.3014 56.5469C31.3079 56.5469 31.3807 56.559 31.6111 56.862Z" fill="white"/>
<path d="M52.2385 51.9666C50.9531 54.2204 48.5762 56.5954 46.3207 57.8798C45.9084 58.11 45.5688 58.3281 45.5688 58.3645C45.5688 58.4009 46.3571 59.2127 47.3151 60.17C49.3523 62.2056 49.2553 62.1693 50.8318 61.3817C52.9176 60.3517 54.6517 58.619 55.7067 56.5227C56.5192 54.899 56.5434 54.9717 54.5062 52.936C53.5603 51.9909 52.7599 51.2154 52.7235 51.2154C52.6872 51.2154 52.4689 51.5546 52.2385 51.9666Z" fill="#BA8756"/>
</svg>
