<svg width="60" height="60" viewBox="0 0 60 60" fill="none" xmlns="http://www.w3.org/2000/svg">
<g clip-path="url(#clip0_932_765)">
<path d="M45 34.4531V58.8281H25.0782V34.4531H45Z" fill="#FFF3DA"/>
<path d="M45 46.6406V58.8281H25.0782V46.6406H45Z" fill="#FFDA8F"/>
<path d="M25.0781 34.4531V58.8281H1.17192V34.4531H25.0781Z" fill="#FFDA8F"/>
<path d="M7.37601 54.1405H18.874C19.7116 54.1405 20.3906 53.4615 20.3906 52.6238V45.3446C20.3906 44.507 19.7116 43.828 18.874 43.828H7.37601C6.53836 43.828 5.85938 44.507 5.85938 45.3446V52.6238C5.85938 53.4615 6.53836 54.1405 7.37601 54.1405Z" fill="white"/>
<path d="M18.5991 10.124H7.65069L1.17188 16.3469H25.0781L18.5991 10.124Z" fill="#FFDA8F"/>
<path d="M7.65088 1.17188H18.5993V10.1244H7.65088V1.17188Z" fill="#FFF3DA"/>
<path d="M45 34.453H58.8279V58.828H45V34.453Z" fill="#FFDA8F"/>
<path d="M16.0708 34.4531H10.179C8.95828 34.4531 7.96875 33.4635 7.96875 32.2428V26.9531H18.2812V32.2428C18.2812 33.4636 17.2916 34.4531 16.0708 34.4531Z" fill="#FFF3DA"/>
<path d="M44.6294 29.5691C52.4711 29.5691 58.828 23.2122 58.828 15.3705C58.828 7.52889 52.4711 1.172 44.6294 1.172C36.7878 1.172 30.4309 7.52889 30.4309 15.3705C30.4309 23.2122 36.7878 29.5691 44.6294 29.5691Z" fill="white"/>
<path d="M48.2121 22.7497C48.0134 22.7497 47.8119 22.6989 47.6273 22.5924L36.8765 16.3852C36.5139 16.1759 36.2905 15.789 36.2905 15.3704C36.2905 14.9518 36.5139 14.5648 36.8765 14.3556L47.6273 8.14849C48.1879 7.82494 48.9046 8.01701 49.2281 8.5774C49.5518 9.1379 49.3597 9.8545 48.7992 10.1782L39.8061 15.3704L48.7992 20.5627C49.3597 20.8864 49.5518 21.603 49.2281 22.1635C49.011 22.5394 48.6171 22.7497 48.2121 22.7497Z" fill="#FF9D15"/>
<path d="M44.6294 30.7409C53.1047 30.7409 59.9998 23.8457 59.9998 15.3705C59.9998 6.8953 53.1048 0 44.6294 0C36.1541 0 29.259 6.89518 29.259 15.3704C29.259 23.8456 36.1542 30.7409 44.6294 30.7409ZM44.6294 2.34375C51.8124 2.34375 57.6561 8.18741 57.6561 15.3704C57.6561 22.5534 51.8124 28.3971 44.6294 28.3971C37.4464 28.3971 31.6028 22.5534 31.6028 15.3704C31.6028 8.18741 37.4466 2.34375 44.6294 2.34375Z" fill="#FF9D15"/>
<path d="M6.50969 38.166C5.75231 37.6465 4.67301 38.2224 4.68742 39.141C4.67172 40.0593 5.75488 40.6387 6.50969 40.1147C7.19617 39.6866 7.19476 38.5952 6.50969 38.166Z" fill="#FF9D15"/>
<path d="M11.3532 38.1652C10.5947 37.6451 9.51661 38.2223 9.5309 39.1402C9.51754 40.0585 10.5968 40.6383 11.3532 40.1139C12.0408 39.6865 12.0387 38.5944 11.3532 38.1652Z" fill="#FF9D15"/>
<path d="M16.1977 38.1656C15.4404 37.6454 14.3606 38.221 14.3754 39.1407C14.3584 40.0589 15.4437 40.6383 16.1977 40.1144C16.8841 39.6863 16.8829 38.5946 16.1977 38.1656Z" fill="#FF9D15"/>
<path d="M20.162 37.9925C19.3645 38.1253 18.9475 39.1332 19.4167 39.7914C19.9807 40.6542 21.3478 40.3826 21.5389 39.3695C21.718 38.5758 20.9565 37.8162 20.162 37.9925Z" fill="#FF9D15"/>
<path d="M1.17198 17.5191H25.0782C25.5564 17.5191 25.9867 17.2285 26.1653 16.7847C26.3438 16.3411 26.2349 15.8334 25.8898 15.5021L19.771 9.62506V1.17187C19.771 0.524765 19.2462 0 18.5991 0H7.65091C7.0038 0 6.47904 0.524765 6.47904 1.17187V9.62506L0.360223 15.5021C0.0152232 15.8334 -0.093761 16.3411 0.0847153 16.7847C0.263426 17.2285 0.693738 17.5191 1.17198 17.5191ZM8.82279 2.34375H17.4274V8.95252H8.82279V2.34375ZM8.12247 11.2963H18.1276L22.1663 15.1755H4.08373L8.12247 11.2963Z" fill="#FF9D15"/>
<path d="M36.1459 51.5624H33.9324C33.2853 51.5624 32.7605 52.0871 32.7605 52.7343C32.7605 53.3814 33.2853 53.9061 33.9324 53.9061H36.1459C36.793 53.9061 37.3178 53.3814 37.3178 52.7343C37.3178 52.0871 36.793 51.5624 36.1459 51.5624Z" fill="#FF9D15"/>
<path d="M58.8278 33.2812H19.2893C19.3952 32.9538 19.453 32.6049 19.453 32.2428V28.125H20.0396C20.6867 28.125 21.2115 27.6002 21.2115 26.9531C21.2115 26.306 20.6867 25.7812 20.0396 25.7812H6.21022C5.56311 25.7812 5.03835 26.306 5.03835 26.9531C5.03835 27.6002 5.56311 28.125 6.21022 28.125H6.79686V32.2428C6.79686 32.6051 6.85475 32.9538 6.96057 33.2812H1.17187C0.524765 33.2812 0 33.806 0 34.4531V58.8281C0 59.4752 0.524765 59.9999 1.17187 59.9999H58.8278C59.4749 59.9999 59.9996 59.4752 59.9996 58.8281V34.4531C59.9996 33.806 59.4749 33.2812 58.8278 33.2812ZM43.828 57.6562H26.25V35.625H43.828V57.6562ZM9.14061 32.2428V28.125H17.1093V32.2428C17.1093 32.8154 16.6434 33.2812 16.0709 33.2812H10.179C9.60643 33.2812 9.14061 32.8154 9.14061 32.2428ZM2.34375 35.625H23.9062V57.6562H2.34375V35.625ZM57.6559 57.6562H46.1718V35.625H57.6559V57.6562Z" fill="#FF9D15"/>
<path d="M49.6875 49.1783C50.3346 49.1783 50.8594 48.6535 50.8594 48.0064V45.2754C50.8594 44.6283 50.3346 44.1035 49.6875 44.1035C49.0404 44.1035 48.5156 44.6283 48.5156 45.2754V48.0064C48.5156 48.6535 49.0403 49.1783 49.6875 49.1783Z" fill="#FF9D15"/>
<path d="M33.9324 41.7186H36.1459C36.793 41.7186 37.3178 41.1939 37.3178 40.5468C37.3178 39.8996 36.793 39.3749 36.1459 39.3749H33.9324C33.2853 39.3749 32.7605 39.8996 32.7605 40.5468C32.7605 41.1939 33.2853 41.7186 33.9324 41.7186Z" fill="#FF9D15"/>
<path d="M48.2131 12.4443C50.0253 12.4443 51.4944 10.9753 51.4944 9.16308C51.4944 7.3509 50.0253 5.88184 48.2131 5.88184C46.4009 5.88184 44.9319 7.3509 44.9319 9.16308C44.9319 10.9753 46.4009 12.4443 48.2131 12.4443Z" fill="#B8ECBC"/>
<path d="M37.4622 18.6514C39.2743 18.6514 40.7434 17.1823 40.7434 15.3701C40.7434 13.5579 39.2743 12.0889 37.4622 12.0889C35.65 12.0889 34.1809 13.5579 34.1809 15.3701C34.1809 17.1823 35.65 18.6514 37.4622 18.6514Z" fill="#FFDA8F"/>
<path d="M48.2131 24.8584C50.0253 24.8584 51.4944 23.3893 51.4944 21.5771C51.4944 19.765 50.0253 18.2959 48.2131 18.2959C46.4009 18.2959 44.9319 19.765 44.9319 21.5771C44.9319 23.3893 46.4009 24.8584 48.2131 24.8584Z" fill="#FF9EB1"/>
</g>
<defs>
<clipPath id="clip0_932_765">
<rect width="60" height="60" fill="white"/>
</clipPath>
</defs>
</svg>
